<svg version="1.1" id="Layer_1" xmlns="http://www.w3.org/2000/svg" xmlns:xlink="http://www.w3.org/1999/xlink" x="0px" y="0px"
	 width="100%" viewBox="0 0 500 500" enable-background="new 0 0 500 500" xml:space="preserve">
<path fill="#000000" opacity="1.000000" stroke="none" 
	d="
M223.000000,501.000000 
	C150.000015,501.000000 77.499985,500.969086 5.000221,501.096313 
	C1.575823,501.102325 0.903037,500.423798 0.905301,497.000000 
	C1.013779,333.000092 1.013772,169.000122 0.905333,5.000234 
	C0.903070,1.576905 1.575833,0.903023 4.999889,0.905288 
	C168.999771,1.013774 332.999725,1.013761 496.999634,0.905352 
	C500.422668,0.903090 501.096985,1.575453 501.094727,4.999770 
	C500.986206,168.999664 500.986237,332.999634 501.094604,496.999542 
	C501.096893,500.422363 500.425262,501.100342 497.000275,501.095795 
	C405.833618,500.975342 314.666809,501.000000 223.000000,501.000000 
z"/>
<path fill="#F4F4F4" opacity="1.000000" stroke="none" 
	d="
M197.428497,275.604492 
	C191.680786,276.347168 187.929199,273.923706 185.904938,269.169708 
	C180.806778,257.196533 180.855103,245.183029 186.920349,233.576859 
	C190.260742,227.184814 194.075073,226.305939 200.408936,229.836639 
	C204.208237,231.954529 206.844788,231.335602 208.952591,227.429291 
	C211.503326,222.702133 211.005203,217.806076 210.167831,212.883804 
	C209.575348,209.400894 207.219406,210.255249 205.306168,211.464111 
	C202.216461,213.416336 199.333252,215.708191 195.695679,216.612701 
	C189.983917,218.032944 185.898392,215.744186 184.218292,209.592056 
	C188.519897,212.268066 192.347321,210.877350 196.269852,209.520615 
	C209.259857,205.027618 216.660797,210.084106 216.943115,223.922409 
	C217.201385,236.582504 217.031189,249.251740 217.013138,261.916901 
	C217.007370,265.959686 217.503113,269.862579 219.720306,273.391113 
	C219.453064,273.611176 219.263199,273.905487 219.059814,273.915161 
	C210.744888,274.309845 210.768997,274.306366 210.705734,265.827423 
	C210.693573,264.197205 211.101028,262.498657 209.844147,260.162018 
	C206.896347,266.482147 205.348328,273.547089 197.428497,275.604492 
z"/>
<path fill="#F7F7F7" opacity="1.000000" stroke="none" 
	d="
M270.377808,199.918457 
	C271.724182,200.974258 272.016602,199.608292 272.493713,198.923904 
	C276.698792,192.892502 280.608490,186.636536 285.103546,180.832718 
	C287.967529,177.134918 291.518494,173.898087 296.138336,171.444794 
	C291.277069,179.537613 286.719818,188.419037 279.943237,195.812805 
	C276.442474,199.632431 273.661133,203.874069 271.577240,208.429382 
	C272.483337,209.881317 274.473022,208.376205 275.034943,210.108398 
	C274.899261,210.389114 274.750031,210.881500 274.653320,210.871399 
	C270.851410,210.473740 270.152100,212.323242 270.239197,215.817963 
	C270.491974,225.957489 270.305878,236.107544 270.333374,246.253357 
	C270.342163,249.495743 269.667023,252.860992 272.462463,255.568222 
	C273.438965,256.513885 273.232849,258.107178 272.720276,259.368469 
	C270.004181,266.052155 269.990173,267.311157 272.965393,273.681396 
	C269.030090,273.681396 265.233032,273.681396 261.441895,273.681396 
	C264.021332,267.927765 264.195496,266.785248 263.847900,257.435852 
	C262.023315,257.684540 260.208984,257.931824 258.394653,258.179108 
	C266.010956,255.276779 263.922913,248.821869 263.965546,243.249573 
	C264.036835,233.935852 263.805389,224.615860 264.080414,215.309708 
	C264.182343,211.861435 263.301178,210.428619 259.403137,210.528320 
	C264.843628,208.321930 265.433563,205.245804 261.215118,196.945984 
	C264.893158,197.638809 265.426514,195.421509 265.544769,192.667740 
	C266.029755,181.375107 267.617371,170.264420 271.241516,159.507446 
	C272.788361,165.049850 273.348816,178.453827 272.243591,184.623978 
	C271.450775,189.049881 270.823486,193.487976 270.853882,198.425186 
	C270.740143,199.147202 270.604401,199.427231 270.377808,199.918457 
z"/>
<path fill="#F7F7F7" opacity="1.000000" stroke="none" 
	d="
M233.152634,222.668427 
	C231.483017,236.307693 232.398499,249.603821 232.201523,262.871521 
	C232.144577,266.707825 233.126099,270.320862 235.010239,273.874908 
	C230.911270,273.874908 227.128784,273.874908 222.963058,273.874908 
	C225.579910,269.692963 225.959122,265.301239 225.940506,260.787781 
	C225.887100,247.836548 225.920105,234.884979 225.916031,221.933548 
	C225.914948,218.442474 225.849854,214.960373 224.104279,211.348267 
	C223.693390,210.665695 223.539001,210.314697 223.797729,209.663559 
	C226.053040,209.380157 228.093628,209.315842 230.560532,209.356018 
	C231.346085,209.692413 231.634613,209.992401 231.903687,210.672821 
	C232.025879,212.077377 232.096954,213.169418 232.072937,214.662933 
	C233.195847,217.330765 233.524292,219.735779 233.152634,222.668427 
z"/>
<path fill="#F4F4F4" opacity="1.000000" stroke="none" 
	d="
M287.720673,139.270752 
	C289.218903,134.586624 290.471252,130.202301 291.723572,125.817970 
	C292.225861,125.894653 292.728119,125.971336 293.230377,126.048012 
	C293.349670,131.829559 293.814423,137.622330 292.491211,143.392471 
	C291.824341,146.300720 290.787079,149.126816 290.180908,152.044830 
	C289.940765,153.200821 288.384277,154.760315 289.946320,155.607925 
	C291.837616,156.634201 292.264893,154.287460 293.120728,153.314331 
	C295.523590,150.582169 297.784088,147.751572 303.054047,146.639526 
	C294.345215,157.484619 286.871521,167.821136 280.929321,179.530472 
	C280.635193,180.033188 280.407715,180.189774 279.783081,180.228729 
	C279.302094,166.491226 280.627319,153.029388 283.942352,139.795044 
	C284.262482,138.516922 284.362701,136.852844 285.212952,136.127960 
	C286.132050,135.344376 285.705414,136.875565 286.019073,137.639862 
	C287.958466,141.110840 286.478424,144.428772 286.487701,147.669800 
	C286.831787,144.965286 286.760010,142.222839 287.720673,139.270752 
z"/>
<path fill="#F4F4F4" opacity="1.000000" stroke="none" 
	d="
M233.473297,222.855240 
	C230.917694,221.022278 232.369400,218.312561 231.967407,215.496460 
	C232.260635,215.803680 232.342606,216.923370 232.868988,217.201263 
	C233.893661,217.742188 234.039139,216.494873 234.440475,215.882050 
	C240.089493,207.256348 241.057419,206.848267 250.855820,208.694885 
	C252.791855,209.059738 254.798920,209.337570 256.632416,208.295547 
	C258.182343,207.414673 258.143463,208.748581 258.753662,209.786438 
	C258.973236,210.044907 259.027954,210.442719 259.017273,210.543335 
	C254.945190,215.286636 250.072632,215.884171 244.233154,214.448074 
	C239.009766,213.163483 236.012985,215.891251 233.473297,222.855240 
z"/>
<path fill="#EBEBEB" opacity="1.000000" stroke="none" 
	d="
M291.963562,281.883606 
	C293.833282,278.406311 294.877747,274.873322 298.033630,272.410156 
	C296.214752,277.878326 294.487671,283.379333 292.548645,288.804565 
	C290.926483,293.343140 291.478485,298.304016 289.297699,302.805420 
	C288.062988,305.353973 288.667908,308.259094 293.571716,307.985291 
	C290.711548,310.076385 288.352051,310.811829 286.097870,309.414520 
	C283.863861,308.029694 284.768372,305.460754 285.029358,303.435333 
	C285.991577,295.968170 288.800049,289.059631 291.963562,281.883606 
z"/>
<path fill="#EBEBEB" opacity="1.000000" stroke="none" 
	d="
M246.599380,272.809784 
	C245.988251,279.612091 242.519989,285.341919 240.671661,291.618591 
	C239.248764,296.450562 240.221863,301.896912 236.865341,306.211639 
	C236.277069,306.967865 236.127457,308.065613 235.538406,308.820923 
	C234.787933,309.783234 233.497177,310.387878 232.451370,309.810150 
	C231.488342,309.278137 232.064270,308.034302 232.334427,307.097229 
	C235.677643,295.500916 239.552521,284.116638 245.891876,273.363159 
	C246.196579,272.928619 246.297958,272.765808 246.599380,272.809784 
z"/>
<path fill="#EBEBEB" opacity="1.000000" stroke="none" 
	d="
M245.814362,301.786407 
	C246.332306,299.961212 246.745926,298.529968 247.216171,297.117523 
	C248.178070,294.228333 248.190582,294.232513 245.232056,292.516602 
	C245.502167,292.345520 245.754761,292.107422 246.050995,292.023621 
	C248.238312,291.405060 250.898712,289.605957 252.603378,291.315491 
	C254.574539,293.292297 251.699783,295.419220 251.187286,297.543335 
	C250.351669,301.006622 247.313065,304.305756 250.592377,308.160187 
	C251.358292,309.060394 249.724945,309.661102 248.842865,309.888275 
	C247.164688,310.320526 245.768127,309.669678 245.251984,308.049744 
	C244.630432,306.098999 245.064560,304.102783 245.814362,301.786407 
z"/>
<path fill="#EBEBEB" opacity="1.000000" stroke="none" 
	d="
M262.183105,298.616516 
	C262.154480,301.758301 258.378448,305.112335 263.430725,307.158569 
	C264.264618,307.496277 263.713623,308.486023 261.928711,309.368378 
	C259.900238,310.371094 257.807404,310.564087 257.025726,308.070435 
	C255.435989,302.999054 259.148163,298.596832 259.451904,293.647339 
	C259.524567,292.463043 263.356354,291.509460 266.572296,289.888885 
	C264.756714,293.432098 263.526123,295.833679 262.183105,298.616516 
z"/>
<path fill="#EBEBEB" opacity="1.000000" stroke="none" 
	d="
M269.073700,302.703735 
	C269.252411,297.747040 274.008698,291.312775 277.819397,291.290009 
	C276.709320,294.335022 275.408142,297.343842 274.548431,300.473877 
	C274.038330,302.330963 274.355499,304.399780 274.052185,306.334442 
	C273.839172,307.693604 277.120178,307.442596 275.280457,309.244110 
	C274.400604,310.105682 273.169464,310.204498 272.016632,309.850647 
	C270.326874,309.332031 269.862152,307.980652 269.906860,306.363678 
	C269.938751,305.209625 269.967407,304.055481 269.685059,302.822723 
	C269.179474,302.696808 268.986359,302.649567 269.073700,302.703735 
z"/>
<path fill="#EBEBEB" opacity="1.000000" stroke="none" 
	d="
M320.974365,253.597168 
	C323.520203,255.405670 323.606262,257.515350 322.887085,260.344482 
	C318.606995,253.998428 313.200439,258.298523 307.228119,258.103485 
	C311.755829,254.640320 315.524414,252.217560 320.974365,253.597168 
z"/>
<path fill="#EBEBEB" opacity="1.000000" stroke="none" 
	d="
M298.225403,305.105408 
	C296.664215,306.219696 296.051208,305.678406 296.442841,304.353302 
	C296.807709,303.118713 297.752258,302.066589 298.215912,300.848206 
	C300.125549,295.830231 299.232300,294.096924 293.779602,292.574860 
	C296.355682,291.316284 298.771576,289.588806 301.171204,291.680511 
	C303.614655,293.810394 303.199982,296.826752 301.945648,299.488983 
	C301.045319,301.399841 299.657196,303.080902 298.225403,305.105408 
z"/>
<path fill="#070707" opacity="1.000000" stroke="none" 
	d="
M214.245270,327.450745 
	C208.538620,330.314606 207.503632,330.343353 201.608276,327.996002 
	C201.954453,326.820068 202.881531,327.096710 203.588684,327.351898 
	C207.808762,328.874817 211.228317,327.867615 214.377472,324.660767 
	C217.964081,321.008484 222.283539,318.665863 227.664459,318.984955 
	C229.280350,319.080780 230.948135,318.932739 232.610367,321.219299 
	C224.620636,318.633423 219.598343,322.959595 214.245270,327.450745 
z"/>
<path fill="#070707" opacity="1.000000" stroke="none" 
	d="
M256.365936,324.950867 
	C258.694519,320.214172 263.044006,320.697876 267.720245,321.722382 
	C263.780060,321.223358 260.354919,323.386566 256.365936,324.950867 
z"/>
<path fill="#717171" opacity="1.000000" stroke="none" 
	d="
M287.673157,139.077454 
	C288.465179,142.462250 286.976227,145.639542 285.885986,148.966141 
	C285.885986,145.602341 285.885986,142.238541 285.966003,138.421356 
	C286.490570,138.373306 286.935120,138.778641 287.673157,139.077454 
z"/>
<path fill="#717171" opacity="1.000000" stroke="none" 
	d="
M247.076233,272.844482 
	C246.799423,273.016541 246.454132,273.118073 246.274658,273.104767 
	C247.879074,271.727478 247.800262,268.812469 251.212219,267.446747 
	C249.530441,269.724060 248.441742,271.198242 247.076233,272.844482 
z"/>
<path fill="#070707" opacity="1.000000" stroke="none" 
	d="
M251.624405,329.054108 
	C250.374573,333.145935 247.723694,331.994995 244.797287,330.432922 
	C247.062927,329.953949 249.135941,329.515686 251.624405,329.054108 
z"/>
<path fill="#070707" opacity="1.000000" stroke="none" 
	d="
M302.854889,323.281311 
	C302.148865,321.845917 302.364166,320.871338 303.764404,321.609131 
	C305.106842,322.316528 306.533356,323.318420 306.582733,325.303253 
	C304.652618,326.126770 304.135864,324.263519 302.854889,323.281311 
z"/>
<path fill="#070707" opacity="1.000000" stroke="none" 
	d="
M293.626068,320.736053 
	C295.818542,319.731445 297.887756,319.816101 299.973877,320.590942 
	C297.792358,320.518951 295.769592,322.052551 293.626068,320.736053 
z"/>
<path fill="#717171" opacity="1.000000" stroke="none" 
	d="
M279.184143,180.336517 
	C279.624695,180.025772 279.863464,179.940475 280.482422,179.865875 
	C280.489105,181.378311 280.115570,182.880005 279.592346,184.983444 
	C278.027771,183.175247 279.101257,181.799774 279.184143,180.336517 
z"/>
<path fill="#070707" opacity="1.000000" stroke="none" 
	d="
M327.895752,320.038025 
	C329.820709,320.003479 331.403503,320.003479 334.334595,320.003479 
	C331.251556,321.370697 329.446381,320.916962 327.677094,320.919525 
	C327.541473,320.919708 327.281250,320.744843 327.291443,320.694824 
	C327.335693,320.478607 327.459015,320.278534 327.895752,320.038025 
z"/>
<path fill="#070707" opacity="1.000000" stroke="none" 
	d="
M275.640869,326.922913 
	C274.567047,328.161011 273.937958,327.447540 273.504456,326.569275 
	C273.378540,326.314240 273.672729,325.537140 273.898956,325.478241 
	C274.804657,325.242523 275.294556,325.885498 275.640869,326.922913 
z"/>
<path fill="#EBEBEB" opacity="1.000000" stroke="none" 
	d="
M269.343933,302.743011 
	C268.696381,302.991699 268.020172,303.239349 267.343964,303.486969 
	C268.190491,303.381805 267.348480,301.330658 269.231445,302.458252 
	C269.354126,302.805145 269.315308,302.741974 269.343933,302.743011 
z"/>
<path fill="#717171" opacity="1.000000" stroke="none" 
	d="
M253.767395,262.142578 
	C254.457687,260.774139 255.107391,258.799316 256.519958,260.074738 
	C257.687012,261.128540 255.469162,261.631012 254.814728,262.762482 
	C254.309814,262.821869 254.065948,262.688812 253.767395,262.142578 
z"/>
<path fill="#070707" opacity="1.000000" stroke="none" 
	d="
M315.614197,328.006744 
	C314.519470,329.667328 312.762634,328.771545 310.200928,329.035736 
	C312.342072,327.536469 313.826080,328.198334 315.614197,328.006744 
z"/>
<path fill="#070707" opacity="1.000000" stroke="none" 
	d="
M338.529724,321.882416 
	C337.304993,323.303070 336.600647,322.325409 335.816223,321.452972 
	C336.783844,320.777100 337.649933,320.915161 338.529724,321.882416 
z"/>
<path fill="#717171" opacity="1.000000" stroke="none" 
	d="
M253.226456,263.874939 
	C253.060074,265.159943 252.322128,265.931030 251.615952,265.526428 
	C250.654419,264.975525 251.561783,264.175079 252.181610,263.334717 
	C252.663574,263.249146 252.911133,263.361084 253.226456,263.874939 
z"/>
<path fill="#F4F4F4" opacity="1.000000" stroke="none" 
	d="
M232.053436,210.799713 
	C231.652237,210.636765 231.349686,210.288177 231.016968,209.700043 
	C232.214157,208.997635 231.966476,210.024689 232.053436,210.799713 
z"/>
<path fill="#070707" opacity="1.000000" stroke="none" 
	d="
M270.037079,323.281006 
	C270.645233,323.076813 271.357422,323.097504 271.493225,323.903198 
	C271.522522,324.077057 271.167938,324.315613 270.990173,324.524384 
	C270.679199,324.211914 270.368256,323.899414 270.037079,323.281006 
z"/>
<path fill="#070707" opacity="1.000000" stroke="none" 
	d="
M289.280701,324.962585 
	C289.076050,324.353363 289.103241,323.644073 289.907013,323.511139 
	C290.081116,323.482330 290.318481,323.835999 290.526672,324.013519 
	C290.213898,324.323578 289.901123,324.633667 289.280701,324.962585 
z"/>
<path fill="#070707" opacity="1.000000" stroke="none" 
	d="
M285.193298,327.993408 
	C285.845428,327.693024 286.353699,327.327728 286.622742,328.008850 
	C286.689423,328.177612 286.348480,328.711212 286.144745,328.741638 
	C285.680939,328.810944 284.739105,329.467987 285.193298,327.993408 
z"/>
<path fill="#070707" opacity="1.000000" stroke="none" 
	d="
M318.315948,326.954071 
	C318.072540,326.087036 318.328918,325.308746 319.684540,325.046021 
	C319.928680,325.914001 319.669861,326.692657 318.315948,326.954071 
z"/>
<path fill="#070707" opacity="1.000000" stroke="none" 
	d="
M256.021271,325.022369 
	C255.920456,325.663177 255.892792,326.377869 255.086914,326.498230 
	C254.911041,326.524536 254.678116,326.168915 254.471466,325.989197 
	C254.783249,325.679596 255.095001,325.369995 255.683487,325.011169 
	C255.960220,324.961914 256.001221,325.001923 256.021271,325.022369 
z"/>
<path fill="#070707" opacity="1.000000" stroke="none" 
	d="
M280.306183,329.885620 
	C279.455170,329.167786 280.151703,329.140289 280.509766,329.110809 
	C280.745758,329.091400 281.004700,329.351227 281.253357,329.486023 
	C281.012024,329.631409 280.770691,329.776825 280.306183,329.885620 
z"/>
<path fill="#717171" opacity="1.000000" stroke="none" 
	d="
M254.370697,262.629883 
	C254.273621,263.321655 253.993561,263.688385 253.503876,264.165955 
	C253.135269,264.097626 252.976303,263.918488 252.616699,263.438232 
	C252.701889,262.744263 252.987732,262.351318 253.493134,261.843933 
	C253.871033,261.921234 254.029358,262.113007 254.370697,262.629883 
z"/>
<path fill="#070707" opacity="1.000000" stroke="none" 
	d="
M315.993225,327.989014 
	C316.454132,327.661865 316.926056,327.349457 317.692871,327.012604 
	C317.987793,326.988159 317.999115,326.999084 318.003296,327.004883 
	C317.543732,327.330444 317.079956,327.650208 316.323364,328.000031 
	C316.030518,328.030090 316.004272,328.003723 315.993225,327.989014 
z"/>
<path fill="#070707" opacity="1.000000" stroke="none" 
	d="
M289.016296,325.016693 
	C288.894379,325.446899 288.759125,325.863953 288.623901,326.281006 
	C287.949890,325.961334 288.312134,325.598724 288.776855,325.110718 
	C288.973022,324.981445 289.002930,325.003540 289.016296,325.016693 
z"/>
<path fill="#070707" opacity="1.000000" stroke="none" 
	d="
M268.024292,321.976440 
	C268.585327,322.139801 269.128937,322.321289 269.844696,322.738953 
	C270.016846,322.975128 269.996979,323.002594 269.984558,323.015106 
	C269.424683,322.852448 268.877197,322.677307 268.153076,322.268372 
	C267.976410,322.034576 268.006866,321.994568 268.024292,321.976440 
z"/>
<path fill="#F4F4F4" opacity="1.000000" stroke="none" 
	d="
M223.763016,209.358643 
	C224.014359,209.778397 224.016296,210.112335 224.018097,210.696716 
	C223.298492,210.555130 222.996521,210.037323 223.763016,209.358643 
z"/>
<path fill="#F7F7F7" opacity="1.000000" stroke="none" 
	d="
M296.269409,171.154053 
	C296.285858,171.217010 296.135376,170.944580 296.135376,170.944580 
	C296.135376,170.944580 296.159912,171.185379 296.256317,171.096466 
	C296.352722,171.007568 296.252930,171.091110 296.269409,171.154053 
z"/>
<path fill="#070707" opacity="1.000000" stroke="none" 
	d="
M319.994415,324.992432 
	C320.099060,324.669037 320.287567,324.409851 320.788025,324.112183 
	C320.911133,324.334106 320.719971,324.591614 320.232178,324.900726 
	C320.015717,325.011902 320.000366,325.000000 319.994415,324.992432 
z"/>
<path fill="#070707" opacity="1.000000" stroke="none" 
	d="
M320.992096,323.989441 
	C321.084320,323.952301 321.185181,323.925690 321.154053,323.958069 
	C321.022095,324.017059 321.000702,324.000000 320.992096,323.989441 
z"/>
<path fill="#070707" opacity="1.000000" stroke="none" 
	d="
M251.987152,328.981628 
	C252.081253,328.943024 252.191055,328.922668 252.170349,328.966553 
	C252.039841,329.030762 252.002838,328.999908 251.987152,328.981628 
z"/>
<path fill="#070707" opacity="1.000000" stroke="none" 
	d="
M277.466125,328.448547 
	C277.522766,328.414978 277.409485,328.482086 277.466125,328.448547 
z"/>
<path fill="#070707" opacity="1.000000" stroke="none" 
	d="
M324.549805,321.468689 
	C324.582642,321.523224 324.516937,321.414124 324.549805,321.468689 
z"/>
<path fill="#070707" opacity="1.000000" stroke="none" 
	d="
M191.806458,265.918640 
	C188.257996,255.144623 189.021118,244.546509 190.388977,233.962326 
	C190.595032,232.367874 190.942566,229.185074 194.029648,231.596497 
	C196.794891,233.756531 198.307663,237.833893 202.809784,237.225555 
	C207.008362,236.658218 207.822189,232.442230 210.581680,229.451416 
	C211.090897,240.347000 211.006973,250.534744 207.096222,260.279236 
	C206.177933,262.567413 205.145874,264.896576 203.707214,266.872711 
	C199.558243,272.571655 195.657364,272.304382 191.806458,265.918640 
z"/>
<path fill="#000000" opacity="1.000000" stroke="none" 
	d="
M270.574585,199.872742 
	C270.261169,199.856400 270.168854,199.568970 270.168427,199.281403 
	C270.168213,199.160889 270.362610,199.040085 270.657501,198.886169 
	C270.841919,199.102493 270.837341,199.352051 270.574585,199.872742 
z"/>
<path fill="#000000" opacity="1.000000" stroke="none" 
	d="
M288.754608,158.878006 
	C287.635101,158.080872 287.928436,157.248077 288.860229,156.600311 
	C289.049042,156.469040 289.547607,156.475098 289.679718,156.620712 
	C290.494720,157.519180 289.577209,158.038208 288.754608,158.878006 
z"/>
</svg>